<mxfile host="app.diagrams.net" agent="Mozilla/5.0 (Macintosh; Intel Mac OS X 10_15_7) AppleWebKit/605.1.15 (KHTML, like Gecko) Version/18.3 Safari/605.1.15" version="26.2.14">
  <diagram name="Страница — 1" id="3ITn1DzWe7tszCngt_6Q">
    <mxGraphModel dx="2066" dy="1192" grid="1" gridSize="10" guides="1" tooltips="1" connect="1" arrows="1" fold="1" page="1" pageScale="1" pageWidth="1169" pageHeight="827" math="0" shadow="0">
      <root>
        <mxCell id="0" />
        <mxCell id="1" parent="0" />
        <mxCell id="GlFgaJyaD0ZN_Sb9lE5z-126" value="&lt;h1&gt;Офис&lt;/h1&gt;" style="rounded=1;whiteSpace=wrap;html=1;strokeColor=#9673a6;fillColor=#e1d5e7;labelPosition=center;verticalLabelPosition=top;align=right;verticalAlign=bottom;" vertex="1" parent="1">
          <mxGeometry x="38.5" y="680" width="943" height="520" as="geometry" />
        </mxCell>
        <mxCell id="GlFgaJyaD0ZN_Sb9lE5z-127" value="&lt;h1&gt;Data-центр&lt;/h1&gt;" style="rounded=1;whiteSpace=wrap;html=1;strokeColor=#6c8ebf;fillColor=#dae8fc;align=left;verticalAlign=bottom;labelPosition=center;verticalLabelPosition=top;" vertex="1" parent="1">
          <mxGeometry x="30" y="210" width="960" height="410" as="geometry" />
        </mxCell>
        <mxCell id="GlFgaJyaD0ZN_Sb9lE5z-128" style="edgeStyle=orthogonalEdgeStyle;rounded=0;orthogonalLoop=1;jettySize=auto;html=1;entryX=0.5;entryY=0;entryDx=0;entryDy=0;strokeColor=#4D4D4D;fontColor=#FFFFFF;endArrow=none;startFill=0;" edge="1" parent="1" source="GlFgaJyaD0ZN_Sb9lE5z-132" target="GlFgaJyaD0ZN_Sb9lE5z-139">
          <mxGeometry relative="1" as="geometry" />
        </mxCell>
        <mxCell id="GlFgaJyaD0ZN_Sb9lE5z-129" style="edgeStyle=orthogonalEdgeStyle;rounded=0;orthogonalLoop=1;jettySize=auto;html=1;entryX=0.5;entryY=0;entryDx=0;entryDy=0;strokeColor=#4D4D4D;fontColor=#FFFFFF;endArrow=none;startFill=0;" edge="1" parent="1" source="GlFgaJyaD0ZN_Sb9lE5z-132" target="GlFgaJyaD0ZN_Sb9lE5z-149">
          <mxGeometry relative="1" as="geometry" />
        </mxCell>
        <mxCell id="GlFgaJyaD0ZN_Sb9lE5z-130" style="edgeStyle=orthogonalEdgeStyle;rounded=0;orthogonalLoop=1;jettySize=auto;html=1;entryX=0.5;entryY=0;entryDx=0;entryDy=0;strokeColor=#4D4D4D;fontColor=#FFFFFF;endArrow=none;startFill=0;exitX=0.5;exitY=1;exitDx=0;exitDy=0;dashed=1;dashPattern=8 8;" edge="1" parent="1" source="GlFgaJyaD0ZN_Sb9lE5z-132" target="GlFgaJyaD0ZN_Sb9lE5z-135">
          <mxGeometry relative="1" as="geometry">
            <Array as="points">
              <mxPoint x="390" y="500" />
              <mxPoint x="399" y="500" />
            </Array>
          </mxGeometry>
        </mxCell>
        <mxCell id="GlFgaJyaD0ZN_Sb9lE5z-132" value="Маршрутизатор" style="image;html=1;image=img/lib/clip_art/networking/Router_128x128.png;strokeColor=#FFFFFF;fontColor=#1A1A1A;fillColor=#EEEEEE;" vertex="1" parent="1">
          <mxGeometry x="350" y="220" width="80" height="80" as="geometry" />
        </mxCell>
        <mxCell id="GlFgaJyaD0ZN_Sb9lE5z-136" value="" style="group;labelPosition=center;verticalLabelPosition=top;align=center;verticalAlign=bottom;" vertex="1" connectable="0" parent="1">
          <mxGeometry x="50" y="340" width="330" height="360" as="geometry" />
        </mxCell>
        <mxCell id="GlFgaJyaD0ZN_Sb9lE5z-137" value="" style="rounded=1;whiteSpace=wrap;html=1;strokeColor=#FFFFFF;fontColor=#1A1A1A;fillColor=#EEEEEE;opacity=50;" vertex="1" parent="GlFgaJyaD0ZN_Sb9lE5z-136">
          <mxGeometry width="330" height="240" as="geometry" />
        </mxCell>
        <mxCell id="GlFgaJyaD0ZN_Sb9lE5z-138" style="edgeStyle=orthogonalEdgeStyle;rounded=0;orthogonalLoop=1;jettySize=auto;html=1;entryX=0.5;entryY=0;entryDx=0;entryDy=0;strokeColor=#4D4D4D;fontColor=#FFFFFF;endArrow=none;startFill=0;" edge="1" parent="GlFgaJyaD0ZN_Sb9lE5z-136" source="GlFgaJyaD0ZN_Sb9lE5z-139" target="GlFgaJyaD0ZN_Sb9lE5z-140">
          <mxGeometry relative="1" as="geometry" />
        </mxCell>
        <mxCell id="GlFgaJyaD0ZN_Sb9lE5z-139" value="Коммутатор L2(Switch)" style="image;html=1;image=img/lib/clip_art/networking/Switch_128x128.png;strokeColor=#FFFFFF;fontColor=#1A1A1A;fillColor=#EEEEEE;labelPosition=center;verticalLabelPosition=top;align=center;verticalAlign=bottom;" vertex="1" parent="GlFgaJyaD0ZN_Sb9lE5z-136">
          <mxGeometry x="125" y="20" width="80" height="80" as="geometry" />
        </mxCell>
        <mxCell id="GlFgaJyaD0ZN_Sb9lE5z-140" value="DB-сервер" style="image;html=1;image=img/lib/clip_art/computers/Database_128x128.png;strokeColor=#FFFFFF;fontColor=#1A1A1A;fillColor=#EEEEEE;" vertex="1" parent="GlFgaJyaD0ZN_Sb9lE5z-136">
          <mxGeometry x="38" y="110" width="80" height="80" as="geometry" />
        </mxCell>
        <mxCell id="GlFgaJyaD0ZN_Sb9lE5z-141" value="NAS-система" style="image;html=1;image=img/lib/clip_art/computers/Server_128x128.png;strokeColor=#FFFFFF;fontColor=#1A1A1A;fillColor=#EEEEEE;" vertex="1" parent="GlFgaJyaD0ZN_Sb9lE5z-136">
          <mxGeometry x="218" y="120" width="80" height="80" as="geometry" />
        </mxCell>
        <mxCell id="GlFgaJyaD0ZN_Sb9lE5z-142" style="edgeStyle=orthogonalEdgeStyle;rounded=0;orthogonalLoop=1;jettySize=auto;html=1;entryX=0.525;entryY=0.125;entryDx=0;entryDy=0;entryPerimeter=0;strokeColor=#4D4D4D;fontColor=#FFFFFF;endArrow=none;startFill=0;" edge="1" parent="GlFgaJyaD0ZN_Sb9lE5z-136" source="GlFgaJyaD0ZN_Sb9lE5z-139" target="GlFgaJyaD0ZN_Sb9lE5z-141">
          <mxGeometry relative="1" as="geometry" />
        </mxCell>
        <mxCell id="GlFgaJyaD0ZN_Sb9lE5z-143" value="" style="group;labelPosition=center;verticalLabelPosition=top;align=center;verticalAlign=bottom;" vertex="1" connectable="0" parent="1">
          <mxGeometry x="420" y="340" width="560" height="360" as="geometry" />
        </mxCell>
        <mxCell id="GlFgaJyaD0ZN_Sb9lE5z-144" value="&lt;h3&gt;&lt;br&gt;&lt;/h3&gt;" style="rounded=1;whiteSpace=wrap;html=1;strokeColor=#FFFFFF;fontColor=#1A1A1A;fillColor=#EEEEEE;opacity=50;" vertex="1" parent="GlFgaJyaD0ZN_Sb9lE5z-143">
          <mxGeometry width="560" height="240" as="geometry" />
        </mxCell>
        <mxCell id="GlFgaJyaD0ZN_Sb9lE5z-145" style="edgeStyle=orthogonalEdgeStyle;rounded=0;orthogonalLoop=1;jettySize=auto;html=1;entryX=0.5;entryY=0;entryDx=0;entryDy=0;strokeColor=#4D4D4D;fontColor=#FFFFFF;endArrow=none;startFill=0;" edge="1" parent="GlFgaJyaD0ZN_Sb9lE5z-143" source="GlFgaJyaD0ZN_Sb9lE5z-149" target="GlFgaJyaD0ZN_Sb9lE5z-150">
          <mxGeometry relative="1" as="geometry" />
        </mxCell>
        <mxCell id="GlFgaJyaD0ZN_Sb9lE5z-146" style="edgeStyle=orthogonalEdgeStyle;rounded=0;orthogonalLoop=1;jettySize=auto;html=1;entryX=0.5;entryY=0;entryDx=0;entryDy=0;strokeColor=#4D4D4D;fontColor=#FFFFFF;exitX=0;exitY=0.5;exitDx=0;exitDy=0;endArrow=none;startFill=0;" edge="1" parent="GlFgaJyaD0ZN_Sb9lE5z-143" source="GlFgaJyaD0ZN_Sb9lE5z-149" target="GlFgaJyaD0ZN_Sb9lE5z-151">
          <mxGeometry relative="1" as="geometry" />
        </mxCell>
        <mxCell id="GlFgaJyaD0ZN_Sb9lE5z-147" style="edgeStyle=orthogonalEdgeStyle;rounded=0;orthogonalLoop=1;jettySize=auto;html=1;entryX=0.5;entryY=0;entryDx=0;entryDy=0;strokeColor=#4D4D4D;fontColor=#FFFFFF;endArrow=none;startFill=0;" edge="1" parent="GlFgaJyaD0ZN_Sb9lE5z-143" source="GlFgaJyaD0ZN_Sb9lE5z-149">
          <mxGeometry relative="1" as="geometry">
            <mxPoint x="485" y="126.48648648648646" as="targetPoint" />
          </mxGeometry>
        </mxCell>
        <mxCell id="GlFgaJyaD0ZN_Sb9lE5z-148" style="edgeStyle=orthogonalEdgeStyle;rounded=0;orthogonalLoop=1;jettySize=auto;html=1;entryX=0.5;entryY=0;entryDx=0;entryDy=0;strokeColor=#4D4D4D;fontColor=#FFFFFF;exitX=1;exitY=0.5;exitDx=0;exitDy=0;endArrow=none;startFill=0;" edge="1" parent="GlFgaJyaD0ZN_Sb9lE5z-143" source="GlFgaJyaD0ZN_Sb9lE5z-149" target="GlFgaJyaD0ZN_Sb9lE5z-152">
          <mxGeometry relative="1" as="geometry" />
        </mxCell>
        <mxCell id="GlFgaJyaD0ZN_Sb9lE5z-149" value="Коммутатор L2(Switch)" style="image;html=1;image=img/lib/clip_art/networking/Switch_128x128.png;strokeColor=#FFFFFF;fontColor=#1A1A1A;fillColor=#EEEEEE;labelPosition=center;verticalLabelPosition=top;align=center;verticalAlign=bottom;" vertex="1" parent="GlFgaJyaD0ZN_Sb9lE5z-143">
          <mxGeometry x="235" y="20" width="75" height="80" as="geometry" />
        </mxCell>
        <mxCell id="GlFgaJyaD0ZN_Sb9lE5z-150" value="Web-сервер" style="image;html=1;image=img/lib/clip_art/computers/Server_128x128.png;strokeColor=#FFFFFF;fontColor=#1A1A1A;fillColor=#EEEEEE;" vertex="1" parent="GlFgaJyaD0ZN_Sb9lE5z-143">
          <mxGeometry x="25" y="126.4864864864865" width="80" height="77.83783783783784" as="geometry" />
        </mxCell>
        <mxCell id="GlFgaJyaD0ZN_Sb9lE5z-151" value="Email-сервер" style="image;html=1;image=img/lib/clip_art/computers/Server_128x128.png;strokeColor=#FFFFFF;fontColor=#1A1A1A;fillColor=#EEEEEE;" vertex="1" parent="GlFgaJyaD0ZN_Sb9lE5z-143">
          <mxGeometry x="165" y="126.4864864864865" width="80" height="77.83783783783784" as="geometry" />
        </mxCell>
        <mxCell id="GlFgaJyaD0ZN_Sb9lE5z-152" value="DNS-сервер" style="image;html=1;image=img/lib/clip_art/computers/Server_128x128.png;strokeColor=#FFFFFF;fontColor=#1A1A1A;fillColor=#EEEEEE;" vertex="1" parent="GlFgaJyaD0ZN_Sb9lE5z-143">
          <mxGeometry x="305" y="126.4864864864865" width="80" height="77.83783783783784" as="geometry" />
        </mxCell>
        <mxCell id="GlFgaJyaD0ZN_Sb9lE5z-153" value="VPN-сервер" style="image;html=1;image=img/lib/clip_art/general/Lock_128x128.png;strokeColor=#FFFFFF;fontColor=#1A1A1A;fillColor=#EEEEEE;" vertex="1" parent="GlFgaJyaD0ZN_Sb9lE5z-143">
          <mxGeometry x="440" y="126.49000000000001" width="80" height="80" as="geometry" />
        </mxCell>
        <mxCell id="GlFgaJyaD0ZN_Sb9lE5z-154" value="&lt;font style=&quot;font-size: 15px;&quot;&gt;Серверный сегмент&lt;/font&gt;" style="text;strokeColor=none;align=center;fillColor=none;html=1;verticalAlign=middle;whiteSpace=wrap;rounded=0;fontColor=#1A1A1A;" vertex="1" parent="1">
          <mxGeometry x="780" y="310" width="190" height="30" as="geometry" />
        </mxCell>
        <mxCell id="GlFgaJyaD0ZN_Sb9lE5z-157" value="&lt;font style=&quot;font-size: 15px;&quot;&gt;Сегмент БД&lt;/font&gt;" style="text;strokeColor=none;align=center;fillColor=none;html=1;verticalAlign=middle;whiteSpace=wrap;rounded=0;fontColor=#1A1A1A;" vertex="1" parent="1">
          <mxGeometry x="50" y="310" width="90" height="30" as="geometry" />
        </mxCell>
        <mxCell id="GlFgaJyaD0ZN_Sb9lE5z-170" value="" style="rounded=1;whiteSpace=wrap;html=1;strokeColor=#FFFFFF;fontColor=#1A1A1A;fillColor=#EEEEEE;textOpacity=20;labelBackgroundColor=#CCE5FF;opacity=50;" vertex="1" parent="1">
          <mxGeometry x="48.5" y="810" width="330" height="360" as="geometry" />
        </mxCell>
        <mxCell id="GlFgaJyaD0ZN_Sb9lE5z-180" value="" style="group" vertex="1" connectable="0" parent="1">
          <mxGeometry x="30" y="780" width="318" height="350" as="geometry" />
        </mxCell>
        <mxCell id="GlFgaJyaD0ZN_Sb9lE5z-155" value="&lt;font style=&quot;font-size: 15px;&quot;&gt;Серверный сегмент&lt;/font&gt;" style="text;strokeColor=none;align=center;fillColor=none;html=1;verticalAlign=middle;whiteSpace=wrap;rounded=0;fontColor=#1A1A1A;" vertex="1" parent="GlFgaJyaD0ZN_Sb9lE5z-180">
          <mxGeometry width="200" height="30" as="geometry" />
        </mxCell>
        <mxCell id="GlFgaJyaD0ZN_Sb9lE5z-171" style="edgeStyle=orthogonalEdgeStyle;rounded=0;orthogonalLoop=1;jettySize=auto;html=1;entryX=0.5;entryY=0;entryDx=0;entryDy=0;strokeColor=#4D4D4D;fontColor=#FFFFFF;endArrow=none;startFill=0;" edge="1" parent="GlFgaJyaD0ZN_Sb9lE5z-180" source="GlFgaJyaD0ZN_Sb9lE5z-174" target="GlFgaJyaD0ZN_Sb9lE5z-175">
          <mxGeometry relative="1" as="geometry" />
        </mxCell>
        <mxCell id="GlFgaJyaD0ZN_Sb9lE5z-172" style="edgeStyle=orthogonalEdgeStyle;rounded=0;orthogonalLoop=1;jettySize=auto;html=1;entryX=0.5;entryY=0;entryDx=0;entryDy=0;strokeColor=#4D4D4D;fontColor=#FFFFFF;endArrow=none;startFill=0;" edge="1" parent="GlFgaJyaD0ZN_Sb9lE5z-180" source="GlFgaJyaD0ZN_Sb9lE5z-174" target="GlFgaJyaD0ZN_Sb9lE5z-176">
          <mxGeometry relative="1" as="geometry" />
        </mxCell>
        <mxCell id="GlFgaJyaD0ZN_Sb9lE5z-173" style="edgeStyle=orthogonalEdgeStyle;rounded=0;orthogonalLoop=1;jettySize=auto;html=1;entryX=0.5;entryY=0;entryDx=0;entryDy=0;strokeColor=#4D4D4D;fontColor=#FFFFFF;endArrow=none;startFill=0;" edge="1" parent="GlFgaJyaD0ZN_Sb9lE5z-180" source="GlFgaJyaD0ZN_Sb9lE5z-174" target="GlFgaJyaD0ZN_Sb9lE5z-177">
          <mxGeometry relative="1" as="geometry" />
        </mxCell>
        <mxCell id="GlFgaJyaD0ZN_Sb9lE5z-174" value="Коммутатор L2(Switch)" style="image;html=1;image=img/lib/clip_art/networking/Switch_128x128.png;strokeColor=#FFFFFF;fontColor=#1A1A1A;fillColor=#EEEEEE;labelPosition=center;verticalLabelPosition=top;align=center;verticalAlign=bottom;" vertex="1" parent="GlFgaJyaD0ZN_Sb9lE5z-180">
          <mxGeometry x="148" y="50" width="80" height="80" as="geometry" />
        </mxCell>
        <mxCell id="GlFgaJyaD0ZN_Sb9lE5z-175" value="Web-сервер" style="image;html=1;image=img/lib/clip_art/computers/Server_128x128.png;strokeColor=#FFFFFF;fontColor=#1A1A1A;fillColor=#EEEEEE;" vertex="1" parent="GlFgaJyaD0ZN_Sb9lE5z-180">
          <mxGeometry x="58" y="150" width="80" height="80" as="geometry" />
        </mxCell>
        <mxCell id="GlFgaJyaD0ZN_Sb9lE5z-176" value="NAS-система" style="image;html=1;image=img/lib/clip_art/computers/Server_128x128.png;strokeColor=#FFFFFF;fontColor=#1A1A1A;fillColor=#EEEEEE;" vertex="1" parent="GlFgaJyaD0ZN_Sb9lE5z-180">
          <mxGeometry x="238" y="150" width="80" height="80" as="geometry" />
        </mxCell>
        <mxCell id="GlFgaJyaD0ZN_Sb9lE5z-177" value="VPN-сервер" style="image;html=1;image=img/lib/clip_art/general/Lock_128x128.png;strokeColor=#FFFFFF;fontColor=#1A1A1A;fillColor=#EEEEEE;" vertex="1" parent="GlFgaJyaD0ZN_Sb9lE5z-180">
          <mxGeometry x="148" y="270" width="80" height="80" as="geometry" />
        </mxCell>
        <mxCell id="GlFgaJyaD0ZN_Sb9lE5z-181" value="" style="group" vertex="1" connectable="0" parent="1">
          <mxGeometry x="358.5" y="690" width="80" height="80" as="geometry" />
        </mxCell>
        <mxCell id="GlFgaJyaD0ZN_Sb9lE5z-133" style="edgeStyle=orthogonalEdgeStyle;rounded=0;orthogonalLoop=1;jettySize=auto;html=1;entryX=0.5;entryY=0;entryDx=0;entryDy=0;strokeColor=#4D4D4D;fontColor=#FFFFFF;exitX=0;exitY=0.5;exitDx=0;exitDy=0;endArrow=none;startFill=0;" edge="1" parent="GlFgaJyaD0ZN_Sb9lE5z-181" source="GlFgaJyaD0ZN_Sb9lE5z-135" target="GlFgaJyaD0ZN_Sb9lE5z-174">
          <mxGeometry relative="1" as="geometry" />
        </mxCell>
        <mxCell id="GlFgaJyaD0ZN_Sb9lE5z-135" value="Маршрутизатор" style="image;html=1;image=img/lib/clip_art/networking/Router_128x128.png;strokeColor=#FFFFFF;fontColor=#1A1A1A;fillColor=#EEEEEE;" vertex="1" parent="GlFgaJyaD0ZN_Sb9lE5z-181">
          <mxGeometry width="80" height="80" as="geometry" />
        </mxCell>
        <mxCell id="GlFgaJyaD0ZN_Sb9lE5z-182" value="" style="group" vertex="1" connectable="0" parent="1">
          <mxGeometry x="418.5" y="770" width="550" height="400" as="geometry" />
        </mxCell>
        <mxCell id="GlFgaJyaD0ZN_Sb9lE5z-156" value="&lt;span style=&quot;font-size: 15px;&quot;&gt;Пользовательский сегмент&lt;/span&gt;" style="text;strokeColor=none;align=center;fillColor=none;html=1;verticalAlign=middle;whiteSpace=wrap;rounded=0;fontColor=#1A1A1A;" vertex="1" parent="GlFgaJyaD0ZN_Sb9lE5z-182">
          <mxGeometry x="260" width="290" height="30" as="geometry" />
        </mxCell>
        <mxCell id="GlFgaJyaD0ZN_Sb9lE5z-158" value="" style="rounded=1;whiteSpace=wrap;html=1;strokeColor=#FFFFFF;fontColor=#1A1A1A;fillColor=#EEEEEE;opacity=50;" vertex="1" parent="GlFgaJyaD0ZN_Sb9lE5z-182">
          <mxGeometry y="40" width="550" height="360" as="geometry" />
        </mxCell>
        <mxCell id="GlFgaJyaD0ZN_Sb9lE5z-159" style="edgeStyle=orthogonalEdgeStyle;rounded=0;orthogonalLoop=1;jettySize=auto;html=1;entryX=0.5;entryY=0;entryDx=0;entryDy=0;strokeColor=#4D4D4D;fontColor=#FFFFFF;endArrow=none;startFill=0;" edge="1" parent="GlFgaJyaD0ZN_Sb9lE5z-182" source="GlFgaJyaD0ZN_Sb9lE5z-164" target="GlFgaJyaD0ZN_Sb9lE5z-167">
          <mxGeometry relative="1" as="geometry" />
        </mxCell>
        <mxCell id="GlFgaJyaD0ZN_Sb9lE5z-160" style="edgeStyle=orthogonalEdgeStyle;rounded=0;orthogonalLoop=1;jettySize=auto;html=1;entryX=0.5;entryY=0;entryDx=0;entryDy=0;strokeColor=#4D4D4D;fontColor=#FFFFFF;endArrow=none;startFill=0;" edge="1" parent="GlFgaJyaD0ZN_Sb9lE5z-182" source="GlFgaJyaD0ZN_Sb9lE5z-164" target="GlFgaJyaD0ZN_Sb9lE5z-165">
          <mxGeometry relative="1" as="geometry" />
        </mxCell>
        <mxCell id="GlFgaJyaD0ZN_Sb9lE5z-161" style="edgeStyle=orthogonalEdgeStyle;rounded=0;orthogonalLoop=1;jettySize=auto;html=1;entryX=0.5;entryY=0;entryDx=0;entryDy=0;strokeColor=#4D4D4D;fontColor=#FFFFFF;endArrow=none;startFill=0;" edge="1" parent="GlFgaJyaD0ZN_Sb9lE5z-182" source="GlFgaJyaD0ZN_Sb9lE5z-164" target="GlFgaJyaD0ZN_Sb9lE5z-166">
          <mxGeometry relative="1" as="geometry" />
        </mxCell>
        <mxCell id="GlFgaJyaD0ZN_Sb9lE5z-162" style="edgeStyle=orthogonalEdgeStyle;rounded=0;orthogonalLoop=1;jettySize=auto;html=1;entryX=0.5;entryY=0;entryDx=0;entryDy=0;strokeColor=#4D4D4D;fontColor=#FFFFFF;endArrow=none;startFill=0;" edge="1" parent="GlFgaJyaD0ZN_Sb9lE5z-182" source="GlFgaJyaD0ZN_Sb9lE5z-164" target="GlFgaJyaD0ZN_Sb9lE5z-168">
          <mxGeometry relative="1" as="geometry" />
        </mxCell>
        <mxCell id="GlFgaJyaD0ZN_Sb9lE5z-163" style="edgeStyle=orthogonalEdgeStyle;rounded=0;orthogonalLoop=1;jettySize=auto;html=1;entryX=0.5;entryY=0;entryDx=0;entryDy=0;strokeColor=#4D4D4D;fontColor=#FFFFFF;endArrow=none;startFill=0;" edge="1" parent="GlFgaJyaD0ZN_Sb9lE5z-182" target="GlFgaJyaD0ZN_Sb9lE5z-169">
          <mxGeometry relative="1" as="geometry">
            <mxPoint x="280" y="80" as="sourcePoint" />
            <Array as="points">
              <mxPoint x="275" y="90" />
              <mxPoint x="275" y="90" />
            </Array>
          </mxGeometry>
        </mxCell>
        <mxCell id="GlFgaJyaD0ZN_Sb9lE5z-164" value="Коммутатор L2(Switch)" style="image;html=1;image=img/lib/clip_art/networking/Switch_128x128.png;strokeColor=#FFFFFF;fontColor=#1A1A1A;fillColor=#EEEEEE;labelPosition=center;verticalLabelPosition=top;align=center;verticalAlign=bottom;" vertex="1" parent="GlFgaJyaD0ZN_Sb9lE5z-182">
          <mxGeometry x="235" y="50" width="80" height="80" as="geometry" />
        </mxCell>
        <mxCell id="GlFgaJyaD0ZN_Sb9lE5z-165" value="МФУ" style="image;html=1;image=img/lib/clip_art/computers/Printer_128x128.png;strokeColor=#FFFFFF;fontColor=#1A1A1A;fillColor=#EEEEEE;" vertex="1" parent="GlFgaJyaD0ZN_Sb9lE5z-182">
          <mxGeometry x="440" y="140" width="80" height="80" as="geometry" />
        </mxCell>
        <mxCell id="GlFgaJyaD0ZN_Sb9lE5z-166" value="Access Point" style="image;html=1;image=img/lib/clip_art/networking/Wireless_Router_128x128.png;strokeColor=#FFFFFF;fontColor=#1A1A1A;fillColor=#EEEEEE;" vertex="1" parent="GlFgaJyaD0ZN_Sb9lE5z-182">
          <mxGeometry x="340" y="260" width="80" height="80" as="geometry" />
        </mxCell>
        <mxCell id="GlFgaJyaD0ZN_Sb9lE5z-167" value="ПК сотрудников" style="image;html=1;image=img/lib/clip_art/computers/Workstation_128x128.png;strokeColor=#FFFFFF;fontColor=#1A1A1A;fillColor=#EEEEEE;" vertex="1" parent="GlFgaJyaD0ZN_Sb9lE5z-182">
          <mxGeometry x="40" y="150" width="80" height="80" as="geometry" />
        </mxCell>
        <mxCell id="GlFgaJyaD0ZN_Sb9lE5z-168" value="ПК сотрудников" style="image;html=1;image=img/lib/clip_art/computers/Workstation_128x128.png;strokeColor=#FFFFFF;fontColor=#1A1A1A;fillColor=#EEEEEE;" vertex="1" parent="GlFgaJyaD0ZN_Sb9lE5z-182">
          <mxGeometry x="140" y="260" width="80" height="80" as="geometry" />
        </mxCell>
        <mxCell id="GlFgaJyaD0ZN_Sb9lE5z-169" value="ПК сотрудников" style="image;html=1;image=img/lib/clip_art/computers/Workstation_128x128.png;strokeColor=#FFFFFF;fontColor=#1A1A1A;fillColor=#EEEEEE;" vertex="1" parent="GlFgaJyaD0ZN_Sb9lE5z-182">
          <mxGeometry x="235" y="150" width="80" height="80" as="geometry" />
        </mxCell>
        <mxCell id="GlFgaJyaD0ZN_Sb9lE5z-134" style="edgeStyle=orthogonalEdgeStyle;rounded=0;orthogonalLoop=1;jettySize=auto;html=1;entryX=0.5;entryY=0;entryDx=0;entryDy=0;strokeColor=#4D4D4D;fontColor=#FFFFFF;exitX=1;exitY=0.5;exitDx=0;exitDy=0;endArrow=none;startFill=0;" edge="1" parent="1" source="GlFgaJyaD0ZN_Sb9lE5z-135" target="GlFgaJyaD0ZN_Sb9lE5z-164">
          <mxGeometry relative="1" as="geometry" />
        </mxCell>
      </root>
    </mxGraphModel>
  </diagram>
</mxfile>
